REM DIRINDEX 1\2,1\3,1\4,1\6,1\5\7,1\5\8
REM DIRNAME cjc114,folder01,folder02,folder03,folder04,folder05,folder06,folder07
TITLE ""
FILE "DB4500_5th_3B_09.mp3" MP3
  TRACK 01 AUDIO
    TITLE "0:"
    INDEX 01 00:00:00
  TRACK 02 AUDIO
    TITLE "2:cjc114_1931"
    INDEX 01 00:00:03
  TRACK 03 AUDIO
    TITLE "0:"
    INDEX 01 00:01:07
  TRACK 04 AUDIO
    TITLE "3:cjc114_1932"
    INDEX 01 00:01:28
  TRACK 05 AUDIO
    TITLE "0:"
    INDEX 01 00:02:49
  TRACK 06 AUDIO
    TITLE "4:cjc114_1933"
    INDEX 01 00:03:00
  TRACK 07 AUDIO
    TITLE "0:"
    INDEX 01 00:06:31
  TRACK 08 AUDIO
    TITLE "2:cjc114_1934"
    INDEX 01 00:07:07
  TRACK 09 AUDIO
    TITLE "0:"
    INDEX 01 00:08:21
  TRACK 10 AUDIO
    TITLE "3:cjc114_1935"
    INDEX 01 00:08:46
  TRACK 11 AUDIO
    TITLE "0:"
    INDEX 01 00:09:63
  TRACK 12 AUDIO
    TITLE "4:cjc114_1936"
    INDEX 01 00:10:12
  TRACK 13 AUDIO
    TITLE "0:"
    INDEX 01 00:15:25
  TRACK 14 AUDIO
    TITLE "2:cjc114_1937"
    INDEX 01 00:15:72
  TRACK 15 AUDIO
    TITLE "0:"
    INDEX 01 00:18:44
  TRACK 16 AUDIO
    TITLE "3:cjc114_1938"
    INDEX 01 00:18:72
  TRACK 17 AUDIO
    TITLE "0:"
    INDEX 01 00:20:08
  TRACK 18 AUDIO
    TITLE "4:cjc114_1939"
    INDEX 01 00:20:32
  TRACK 19 AUDIO
    TITLE "0:"
    INDEX 01 00:24:08
  TRACK 20 AUDIO
    TITLE "2:cjc114_1940"
    INDEX 01 00:24:65
  TRACK 21 AUDIO
    TITLE "0:"
    INDEX 01 00:26:11
  TRACK 22 AUDIO
    TITLE "3:cjc114_1941"
    INDEX 01 00:26:36
  TRACK 23 AUDIO
    TITLE "0:"
    INDEX 01 00:28:29
  TRACK 24 AUDIO
    TITLE "4:cjc114_1942"
    INDEX 01 00:28:55
  TRACK 25 AUDIO
    TITLE "0:"
    INDEX 01 00:32:60
  TRACK 26 AUDIO
    TITLE "2:cjc114_1943"
    INDEX 01 00:33:32
  TRACK 27 AUDIO
    TITLE "0:"
    INDEX 01 00:34:42
  TRACK 28 AUDIO
    TITLE "3:cjc114_1944"
    INDEX 01 00:34:65
  TRACK 29 AUDIO
    TITLE "0:"
    INDEX 01 00:36:58
  TRACK 30 AUDIO
    TITLE "4:cjc114_1945"
    INDEX 01 00:37:08
  TRACK 31 AUDIO
    TITLE "0:"
    INDEX 01 00:41:12
  TRACK 32 AUDIO
    TITLE "2:cjc114_1946"
    INDEX 01 00:41:61
  TRACK 33 AUDIO
    TITLE "0:"
    INDEX 01 00:42:68
  TRACK 34 AUDIO
    TITLE "3:cjc114_1947"
    INDEX 01 00:43:21
  TRACK 35 AUDIO
    TITLE "0:"
    INDEX 01 00:44:28
  TRACK 36 AUDIO
    TITLE "4:cjc114_1948"
    INDEX 01 00:44:50
  TRACK 37 AUDIO
    TITLE "0:"
    INDEX 01 00:49:08
  TRACK 38 AUDIO
    TITLE "2:cjc114_1949"
    INDEX 01 00:49:63
  TRACK 39 AUDIO
    TITLE "0:"
    INDEX 01 00:50:74
  TRACK 40 AUDIO
    TITLE "3:cjc114_1950"
    INDEX 01 00:51:28
  TRACK 41 AUDIO
    TITLE "0:"
    INDEX 01 00:52:63
  TRACK 42 AUDIO
    TITLE "4:cjc114_1951"
    INDEX 01 00:53:15
  TRACK 43 AUDIO
    TITLE "0:"
    INDEX 01 00:55:20
  TRACK 44 AUDIO
    TITLE "2:cjc114_1952"
    INDEX 01 00:55:73
  TRACK 45 AUDIO
    TITLE "0:"
    INDEX 01 00:57:15
  TRACK 46 AUDIO
    TITLE "3:cjc114_1953"
    INDEX 01 00:57:43
  TRACK 47 AUDIO
    TITLE "0:"
    INDEX 01 00:59:02
  TRACK 48 AUDIO
    TITLE "4:cjc114_1954"
    INDEX 01 00:59:30
  TRACK 49 AUDIO
    TITLE "0:"
    INDEX 01 01:02:40
  TRACK 50 AUDIO
    TITLE "2:cjc114_1955"
    INDEX 01 01:03:20
  TRACK 51 AUDIO
    TITLE "0:"
    INDEX 01 01:04:39
  TRACK 52 AUDIO
    TITLE "3:cjc114_1956"
    INDEX 01 01:04:66
  TRACK 53 AUDIO
    TITLE "0:"
    INDEX 01 01:06:22
  TRACK 54 AUDIO
    TITLE "4:cjc114_1957"
    INDEX 01 01:06:49
  TRACK 55 AUDIO
    TITLE "0:"
    INDEX 01 01:11:17
  TRACK 56 AUDIO
    TITLE "2:cjc114_1958"
    INDEX 01 01:11:70
  TRACK 57 AUDIO
    TITLE "0:"
    INDEX 01 01:13:22
  TRACK 58 AUDIO
    TITLE "3:cjc114_1959"
    INDEX 01 01:13:51
  TRACK 59 AUDIO
    TITLE "0:"
    INDEX 01 01:14:74
  TRACK 60 AUDIO
    TITLE "4:cjc114_1960"
    INDEX 01 01:15:29
  TRACK 61 AUDIO
    TITLE "0:"
    INDEX 01 01:20:26
  TRACK 62 AUDIO
    TITLE "2:cjc114_1961"
    INDEX 01 01:21:06
  TRACK 63 AUDIO
    TITLE "0:"
    INDEX 01 01:22:15
  TRACK 64 AUDIO
    TITLE "3:cjc114_1962"
    INDEX 01 01:22:42
  TRACK 65 AUDIO
    TITLE "0:"
    INDEX 01 01:23:67
  TRACK 66 AUDIO
    TITLE "4:cjc114_1963"
    INDEX 01 01:24:20
  TRACK 67 AUDIO
    TITLE "0:"
    INDEX 01 01:27:40
  TRACK 68 AUDIO
    TITLE "2:cjc114_1964"
    INDEX 01 01:28:18
  TRACK 69 AUDIO
    TITLE "0:"
    INDEX 01 01:29:35
  TRACK 70 AUDIO
    TITLE "3:cjc114_1965"
    INDEX 01 01:29:62
  TRACK 71 AUDIO
    TITLE "0:"
    INDEX 01 01:31:30
  TRACK 72 AUDIO
    TITLE "4:cjc114_1966"
    INDEX 01 01:31:59
  TRACK 73 AUDIO
    TITLE "0:"
    INDEX 01 01:36:23
